<svg xmlns="http://www.w3.org/2000/svg" xmlns:xlink="http://www.w3.org/1999/xlink" viewBox="0 0 308.77 325.78"><defs><style>.cls-1,.cls-2,.cls-3{fill-rule:evenodd;}.cls-1{fill:url(#linear-gradient);}.cls-2{fill:url(#linear-gradient-2);}.cls-3{fill:url(#linear-gradient-3);}</style><linearGradient id="linear-gradient" x1="1864.34" y1="-814.2" x2="1265.79" y2="-1101.1" gradientTransform="matrix(-0.22, -0.39, -0.39, 0.22, 202.47, 911.01)" gradientUnits="userSpaceOnUse"><stop offset="0" stop-color="#868686"/><stop offset="1" stop-color="#868686" stop-opacity="0"/></linearGradient><linearGradient id="linear-gradient-2" x1="1406.6" y1="-673.78" x2="808.05" y2="-960.68" gradientTransform="matrix(0.44, 0.01, 0.01, -0.44, -329.43, -126.88)" xlink:href="#linear-gradient"/><linearGradient id="linear-gradient-3" x1="1513.87" y1="-1140.41" x2="915.32" y2="-1427.31" gradientTransform="matrix(-0.23, 0.38, 0.38, 0.23, 835.37, -68.58)" xlink:href="#linear-gradient"/></defs><g id="Layer_2" data-name="Layer 2"><g id="svg3816"><g id="layer1"><g id="g3727"><path id="path3729" class="cls-1" d="M41.73,52c.41-1,39.75-52,112.41-52,87.22,0,128,72,128,74l26.63-15.2L276.24,140l-84.62-16.33,31.1-17.29C222,105.16,201.14,68,154.14,67.5c-30.82-.34-52.38,19.53-53,20.1L86.56,45.54,41.73,52Z"/></g><g id="g3739"><path id="path3741" class="cls-2" d="M293,97.92c.67.85,25.16,60.42-11.17,123.35-43.6,75.53-126.35,74.85-128.08,73.85l-.15,30.66L99.59,257,156,191.89l-.57,35.59c1.41,0,44,.48,67.95-40,15.7-26.52,9.27-55.12,9.1-56l43.7,8.43,16.83-42.06Z"/></g><g id="g3747"><path id="path3749" class="cls-3" d="M127.63,292.6c-1.07.15-64.91-8.42-101.24-71.35-43.6-75.53-1.64-146.84.09-147.85L0,57.94,86.58,45.52,114.75,127,84.22,108.68c-.68,1.24-22.42,37.86.63,78.83C100,214.37,128,223.1,128.77,223.38L99.62,257l28,35.59Z"/></g></g></g></g></svg>